<?xml version="1.0" encoding="utf-8"?>
<!-- Generator: Adobe Illustrator 25.4.1, SVG Export Plug-In . SVG Version: 6.00 Build 0)  -->
<svg version="1.1" id="Layer_1" xmlns="http://www.w3.org/2000/svg" xmlns:xlink="http://www.w3.org/1999/xlink" x="0px" y="0px"
	 viewBox="0 0 511.4 426.7" style="enable-background:new 0 0 511.4 426.7;" xml:space="preserve">
<path fill="currentColor" d="M191.9,426.7c-5.3,0-10.6-2-14.8-5.9L25.2,275.1c-33.6-33.6-33.6-87.7-0.3-121L177,6c8.4-8.2,22-8,30.2,0.4
	c8.2,8.4,8,22-0.4,30.2L54.9,184.5c-16.4,16.4-16.4,43.5,0.2,60.1l151.6,145.3c8.5,8.1,8.8,21.7,0.6,30.2
	C203.1,424.5,197.5,426.7,191.9,426.7L191.9,426.7z M334.8,420.6l151.7-148.1c33.3-33.3,33.3-87.4-0.3-121L334.7,6
	c-8.5-8.1-22-7.9-30.2,0.6c-8.1,8.5-7.9,22,0.6,30.2L456.4,182c16.6,16.6,16.6,43.7,0.2,60.2L305,390.1c-8.4,8.2-8.6,21.7-0.4,30.2
	c4.2,4.3,9.7,6.4,15.3,6.4C325.3,426.7,330.6,424.6,334.8,420.6L334.8,420.6z"  />
</svg>
