<?xml version="1.0" encoding="utf-8"?>
<!-- Generator: Adobe Illustrator 25.4.1, SVG Export Plug-In . SVG Version: 6.00 Build 0)  -->
<svg version="1.1" id="Layer_1" xmlns="http://www.w3.org/2000/svg" xmlns:xlink="http://www.w3.org/1999/xlink" x="0px" y="0px"
	 viewBox="0 0 1377.4 1354.4" style="enable-background:new 0 0 1377.4 1354.4;" xml:space="preserve">
<style type="text/css">
	.st0{fill:#0ACF83;}
	.st1{fill:#A259FF;}
	.st2{fill:#F24E1E;}
	.st3{fill:#FF7262;}
	.st4{fill:#1ABCFE;}
</style>
<desc>Created using Figma</desc>
<path id="path0_fill" class="st0" d="M454.3,1354.4c135,0,244.5-101.1,244.5-225.7V902.9H454.3c-135,0-244.5,101.1-244.5,225.7
	S319.3,1354.4,454.3,1354.4z"/>
<path id="path1_fill" class="st1" d="M209.8,677.2c0-124.6,109.5-225.7,244.5-225.7h244.5V903H454.3
	C319.3,902.9,209.8,801.8,209.8,677.2z"/>
<path id="path1_fill_1_" class="st2" d="M209.8,225.7C209.8,101.1,319.3,0,454.3,0h244.5v451.5H454.3
	C319.3,451.5,209.8,350.3,209.8,225.7z"/>
<path id="path2_fill" class="st3" d="M698.9,0h244.5c135,0,244.5,101.1,244.5,225.7s-109.5,225.8-244.5,225.8H698.9V0z"/>
<path id="path3_fill" class="st4" d="M1187.9,677.2c0,124.6-109.5,225.7-244.5,225.7S698.9,801.8,698.9,677.2
	s109.5-225.7,244.5-225.7S1187.9,552.6,1187.9,677.2z"/>
</svg>
