<?xml version="1.0" encoding="utf-8"?>
<!-- Generator: Adobe Illustrator 25.4.1, SVG Export Plug-In . SVG Version: 6.00 Build 0)  -->
<svg version="1.1" id="Layer_1" xmlns="http://www.w3.org/2000/svg" xmlns:xlink="http://www.w3.org/1999/xlink" x="0px" y="0px"
	 viewBox="0 0 801.2 884.9" style="enable-background:new 0 0 801.2 884.9;" xml:space="preserve">
<style type="text/css">
	.st0{fill:#99425B;}
	.st1{fill:#FFFFFF;}
</style>
<path class="st0" d="M751,435.7c0-45.5-36.9-82.4-82.4-82.4c-2.9,0-5.8,0.2-8.7,0.5L773.2,20.1H292.4l113,333.4
	c-1.7-0.1-3.3-0.2-5-0.2c-45.5,0-82.4,36.9-82.4,82.4c0,36.8,24.1,67.9,57.4,78.5c-17.6,30.4-39.7,57.8-64.8,81.5
	c-34.1,32.2-73.2,56.6-115.4,71.6c-50.3-25.8-74-83.3-52.6-133.7c2.4-5.7,4.9-11.5,7.3-17.2c36.4-8.5,63.6-41.2,63.6-80.2
	c0-45.5-36.9-82.4-82.4-82.4s-82.4,36.9-82.4,82.4c0,27.9,13.9,52.5,35.1,67.4c-20.4,46.4-50.4,95-59.7,151.3
	c-11.2,67.5,0,139.1,58.3,179.5c135.9,94.2,283.4-58.4,439-96.8c56.4-13.9,118.3-11.7,167.9-40.4c37.3-21.6,61.9-57.4,68.9-97.6
	c6.9-39.7-3.2-79.2-26.3-111.3C744.3,473.7,751.1,455,751,435.7"/>
<path class="st1" d="M738.3,596.3c-6.1,34.9-27.6,65.4-59.1,83.6c-29.4,17-64.6,22.1-101.9,27.5c-20,2.9-40.6,5.9-60.8,10.8
	c-53.3,13.2-105,38.8-155,63.6c-100,49.7-186.3,92.5-267.7,36.1C34.2,776.7,37,700.2,43.9,658.3c6.4-38.8,23.8-74.6,40.7-109.2
	c2.9-5.9,5.7-11.8,8.5-17.7c8.5,3.4,17.4,5.6,26.5,6.6c-17.1,56.6,9.8,118,66.4,147.1l7.7,4l8.2-2.9c44.7-15.9,85.9-41.5,122.5-76
	C348,588,368.3,563.3,385,537c5.1,0.8,10.2,1.2,15.3,1.2c51.9,0,94.9-38.8,101.6-88.9c21.3-0.8,43.8-0.8,65.2,0
	c6.6,50.1,49.6,88.9,101.6,88.9c21.7,0,41.8-6.8,58.4-18.4C738.6,543.4,742.9,569.9,738.3,596.3L738.3,596.3z M131.1,374
	c34.3,0,62.2,27.9,62.2,62.2c0,12.3-3.6,23.8-9.8,33.5c-10.3,16.1-27.9,27.2-48.1,28.6c-1.4,0.1-2.8,0.2-4.3,0.2
	c-7.6,0-15-1.4-21.8-3.9c-13.6-5.1-25.1-14.9-32.3-27.5c-5.4-9.4-8.2-20-8.2-30.8C68.8,401.9,96.7,374,131.1,374L131.1,374z
	 M338.1,435.7c0-31.2,23.1-57.1,53-61.6c3-0.5,6.1-0.7,9.2-0.7c20,0,37.7,9.5,49.1,24.1c2.9,3.7,5.3,7.6,7.3,11.8
	c3.9,8.2,5.9,17.2,5.9,26.3c0,5-0.6,9.8-1.7,14.5c-6.1,25.4-27.7,44.8-54.3,47.5c-2.1,0.2-4.2,0.3-6.3,0.3c-12,0-23.7-3.5-33.7-10
	C349.5,476.8,338.1,457.6,338.1,435.7L338.1,435.7z M597.9,361.6c-13.5,12.9-23.3,29.3-28.2,47.4c-23.5-0.9-46.9-0.9-70.4,0
	c-5.3-19.5-16.2-36.8-30.9-49.9l64.4-130.2L597.9,361.6z M320.5,40.2h424.6L644.8,336c-4.3,1-8.6,2.3-12.7,3.9L533,137.9
	l-99.4,200.9c-4.3-1.5-8.8-2.7-13.2-3.6L320.5,40.2z M730.9,435.7c0,6.2-0.9,12.3-2.6,18c-4.1,13.4-12.5,25-24,33.1
	c-10.4,7.3-22.9,11.2-35.6,11.2c-28.7,0-53-19.6-60.1-46.1c-1.4-5.3-2.1-10.7-2.1-16.1c0-8.5,1.7-16.6,4.8-24
	c1.6-3.8,3.6-7.4,5.9-10.8c11.2-16.5,30.1-27.4,51.5-27.4c2,0,3.9,0.1,5.8,0.3C706.1,376.7,730.9,403.3,730.9,435.7L730.9,435.7z
	 M771.2,435.7c0-50-36-91.8-83.5-100.7L801.2,0H264.4l113.8,335.7c-45.8,10.2-80.2,51.2-80.2,100c0,36.7,19.4,68.9,48.4,87
	c-14,20.8-30.5,40.4-49.5,58.3c-30.1,28.4-63.7,50-99.9,64.1c-36.4-22.9-51.8-66.1-35.8-103.7l1.3-2.9l2.4-5.5
	c40-14,68.8-52.1,68.8-96.8c0-56.5-46-102.5-102.5-102.5s-102.5,46-102.5,102.5c0,28.5,11.7,54.3,30.6,72.9
	c-3.5,7.5-7.1,14.9-10.7,22.3c-17.3,35.4-36.8,75.6-44.2,120.2c-14.7,88.6,9,159.4,66.7,199.4c35,24.3,70.6,33.8,106.4,33.8
	c67.4,0,135.5-33.9,202.2-67c48-23.8,97.7-48.5,146.7-60.6c18.2-4.5,37-7.2,56.9-10.1c39.4-5.7,80.2-11.6,116.3-32.5
	c41.9-24.2,70.5-64.9,78.6-111.6c7-40.1-1.4-80.2-21.8-114.2C766,473,771.2,454.5,771.2,435.7L771.2,435.7z"/>
</svg>
