<?xml version="1.0" encoding="utf-8"?>
<!-- Generator: Adobe Illustrator 25.4.1, SVG Export Plug-In . SVG Version: 6.00 Build 0)  -->
<svg version="1.1" id="Layer_1" xmlns="http://www.w3.org/2000/svg" xmlns:xlink="http://www.w3.org/1999/xlink" x="0px" y="0px"
	 viewBox="0 0 1907.1 1119.1" style="enable-background:new 0 0 1907.1 1119.1;" xml:space="preserve">
<style type="text/css">
	.st0{fill:#06B6D4;}
</style>
<path class="st0" d="M953.5,10.1c-245.2,0-398.6,122.1-460,366.3c92.1-122.1,199.4-168,322-137.5c69.9,17.5,119.9,68,175.3,124
	c90.2,91.1,194.6,196.6,422.6,196.6c245.2,0,398.5-122.1,459.9-366.3c-91.9,122.1-199.3,167.9-321.9,137.4
	c-69.9-17.4-120-68-175.3-123.9C1285.9,115.5,1181.4,10.1,953.5,10.1z M493.5,559.5C248.3,559.5,95,681.7,33.6,925.9
	C125.6,803.8,232.9,758,355.6,788.5c70,17.4,120,68,175.3,123.9c90.2,91.2,194.6,196.6,422.6,196.6c245.3,0,398.6-122.1,460-366.3
	c-92.1,122.1-199.4,168-321.9,137.5c-70-17.5-120-68-175.4-124C825.9,665.1,721.5,559.5,493.5,559.5L493.5,559.5z"/>
</svg>
