<?xml version="1.0" encoding="utf-8"?>
<!-- Generator: Adobe Illustrator 25.4.1, SVG Export Plug-In . SVG Version: 6.00 Build 0)  -->
<svg version="1.1" xmlns="http://www.w3.org/2000/svg" xmlns:xlink="http://www.w3.org/1999/xlink" x="0px" y="0px"
	 viewBox="0 0 588 588" style="enable-background:new 0 0 588 588;" xml:space="preserve">
<style type="text/css">
	.st0{fill:#FFFFFF;}
	.st1{fill:#154F92;}
	.st2{fill:#FFFFFF;stroke:#FFD0D7;stroke-miterlimit:10;}
</style>
<g id="Layer_2">
	<circle class="st0" cx="291.7" cy="289.3" r="236.6"/>
	<circle class="st0" cx="293" cy="290.5" r="220"/>
</g>
<g id="Layer_1">
	<path class="st1" d="M294,86c115,0,208,93,208,208c0,115-93,208-208,208c-115,0-208-93-208-208C86,179,179,86,294,86 M294,46
		C157,46,46,157,46,294s111,248,248,248s248-111,248-248S431,46,294,46z M294,102c-106,0-192,86-192,192s86,192,192,192
		s192-86,192-192S400,102,294,102z M294,146c19.9,0,36,16.1,36,36s-16.1,36-36,36s-36-16.1-36-36S274.1,146,294,146z M411.7,244
		c-28.7,6.8-55.5,12.7-82.1,15.8c0.9,101,12.3,123.1,25,155.6c3.6,9.3-1,19.7-10.2,23.3c-9.3,3.6-19.7-1-23.3-10.2
		c-8.7-22.3-17.1-40.6-22.3-78.5h-9.7c-5.2,37.9-13.5,56.2-22.3,78.5c-3.6,9.3-14.1,13.8-23.3,10.2c-9.3-3.6-13.8-14.1-10.2-23.3
		c12.7-32.5,24.2-54.5,25-155.6c-26.6-3.1-53.4-9-82.1-15.8c-8.6-2-13.9-10.6-11.9-19.2s10.6-13.9,19.2-11.9
		c96.7,22.8,124.3,22.8,220.8,0c8.6-2,17.2,3.3,19.2,11.9C425.7,233.4,420.3,242,411.7,244z"/>
	<path class="st2" d="M294,79.3c118.7,0,214.7,96,214.7,214.7c0,118.7-96,214.7-214.7,214.7c-118.7,0-214.7-96-214.7-214.7
		C79.3,175.3,175.3,79.3,294,79.3 M294,38C152.6,38,38,152.6,38,294s114.6,256,256,256s256-114.6,256-256S435.4,38,294,38z"/>
	<path class="st1" d="M294,86c115,0,208,93,208,208c0,115-93,208-208,208c-115,0-208-93-208-208C86,179,179,86,294,86 M294,46
		C157,46,46,157,46,294s111,248,248,248s248-111,248-248S431,46,294,46z"/>
</g>
</svg>
